<svg width="86" height="86" viewBox="0 0 86 86" fill="none" xmlns="http://www.w3.org/2000/svg">
<path d="M24.583 67.5819C46.0412 86.3636 71.4512 91.4965 81.5609 79.2826C84.0191 76.3129 85.3408 72.5962 85.6251 68.4013C85.0856 71.3014 83.9409 73.8951 82.1467 76.0619C72.723 87.443 49.0372 82.6601 29.0351 65.1589C9.03309 47.6577 0.539538 24.503 9.96325 13.1219C16.1698 5.62621 28.5626 5.14188 42.0151 10.6845C26.2613 3.13843 11.3175 3.04506 4.12276 11.7373C-5.98697 23.9512 3.12488 48.8001 24.583 67.5819Z" fill="#FE4734"/>
<path d="M84.2462 37.7421V40.6417L84.0316 40.8134C78.7173 41.3516 72.6218 43.1559 69.4569 47.7526C66.0766 52.6609 67.4372 59.2439 72.6476 62.1659L73.9403 62.7393C71.4656 62.608 68.9496 61.7024 66.517 61.4689C66.3719 61.4551 65.9358 61.3384 65.9556 61.5796C67.0895 61.7384 68.2681 62.1058 69.3359 62.5153C70.4038 62.9247 71.4879 63.7711 72.5884 63.7711H77.4185V69.312H69.4965C69.4501 69.312 68.9402 68.8725 68.7454 68.7746C63.1761 65.9754 58.2867 65.9033 52.599 68.5154C52.3535 68.6279 51.3354 69.3111 51.205 69.3111H43.1541V63.7702H48.6289C48.7148 63.7702 49.8753 63.0861 50.1526 62.9745C51.9749 62.2431 53.9364 61.6097 55.9064 61.4491C55.8686 61.2208 55.2377 61.3058 55.0643 61.3161C52.1741 61.4903 49.3517 62.2912 46.5044 62.7376L48.1663 61.7607C51.4299 59.4259 53.2986 56.0404 52.0445 51.9776C51.0256 48.678 49.1088 49.0188 46.2761 48.084C40.9429 46.3234 34.1341 43.9113 32.2036 38.0657L45.3447 38.2562C45.3379 38.7773 45.7533 44.186 46.0529 44.1852L46.246 37.7412H84.2453L84.2462 37.7421Z" fill="#FE4734"/>
<path d="M74.0404 26.8265C73.5382 31.2952 69.1398 34.8318 64.7878 35.1408C64.6384 35.0086 65.8822 33.6378 66.023 33.3777C67.6351 30.3725 64.3406 26.2625 65.4728 22.9723C65.1758 22.8933 65.1294 23.0942 64.9586 23.2264C63.6633 24.2281 61.998 26.199 61.3997 27.7243C61.3139 27.9424 60.9448 29.8411 60.6778 29.6557C59.7499 28.1295 58.8099 26.6986 58.4906 24.8994C58.0168 22.222 58.5919 19.4477 58.0202 16.8013C54.2296 21.028 50.5754 26.3715 52.0595 32.3631C52.3153 33.3957 53.0046 34.3288 53.0527 35.3117C47.353 34.3202 42.9666 29.4351 44.1383 23.4865C45.1401 24.9552 46.4388 26.4574 48.1659 27.0831C43.6181 19.949 48.2036 12.6433 53.2227 7.37187C54.2862 9.39596 54.039 11.693 53.8227 13.8853C56.4863 10.8406 59.7559 6.9607 58.5344 2.57088L57.3352 0C64.6667 3.69967 65.7766 12.0003 63.2461 19.1979C63.5414 19.2752 63.5895 19.0795 63.7603 18.9438C64.6848 18.2151 66.1329 16.573 66.7003 15.542C67.472 14.142 67.7638 12.7222 67.6145 11.1436C71.9476 15.5438 73.4189 22.5645 69.242 27.5973L71.2832 26.6419L74.0395 24.1697C73.9726 25.0221 74.1339 25.993 74.0395 26.8265H74.0404Z" fill="#FE4734"/>
</svg>
