<svg width="197" height="86" viewBox="0 0 197 86" fill="none" xmlns="http://www.w3.org/2000/svg">
<path d="M194.78 58.6287L194.154 56.8786H191.153L190.516 58.6287H188.915L191.694 51.2041H193.613L196.392 58.6287H194.78ZM191.672 55.4361H193.624L192.648 52.742L191.672 55.4361Z" fill="black"/>
<path d="M188.317 58.6287H186.418L183.629 55.1603V58.6287H182.112V51.2041H183.629V54.4921L186.27 51.2041H188.147L185.23 54.7997L188.317 58.6287Z" fill="black"/>
<path d="M179.881 57.1862H181.005V60.103H179.489V58.6287H173.878V57.1862V51.2041H175.394V57.1862H178.364V51.2041H179.881V57.1862Z" fill="black"/>
<path d="M172.668 52.6466H169.2V54.1421H172.382V55.5846H169.2V57.1862H172.668V58.6287H167.683V51.2041H172.668V52.6466Z" fill="black"/>
<path d="M164.554 51.2041H166.071V58.6287H164.554V55.5528H161.256V58.6287H159.739V51.2041H161.256V54.1103H164.554V51.2041Z" fill="black"/>
<path d="M157.407 54.7374C158.107 55.0238 158.542 55.6495 158.542 56.4875C158.542 57.9087 157.439 58.7572 155.7 58.7572C154.056 58.7572 152.772 57.9618 152.645 56.3177H154.183C154.31 57.0496 154.819 57.3148 155.668 57.3148C156.622 57.3148 157.004 56.9435 157.004 56.339C157.004 55.8298 156.718 55.5117 155.785 55.5117H154.713V54.1858H155.594C156.336 54.1858 156.771 53.9949 156.771 53.4434C156.771 52.9131 156.432 52.5206 155.541 52.5206C154.819 52.5206 154.395 52.7434 154.247 53.4328H152.719C152.878 51.863 154.034 51.0781 155.594 51.0781C157.216 51.0781 158.309 51.9797 158.309 53.2419C158.309 53.8889 157.959 54.451 157.407 54.7374Z" fill="black"/>
<path d="M152.218 51.2041L148.367 58.6287H146.67L148.007 56.0619L145.451 51.2041H147.148L148.855 54.4179L150.521 51.2041H152.218Z" fill="black"/>
<path d="M144.855 58.6287H142.956L140.167 55.1603V58.6287H138.65V51.2041H140.167V54.4921L142.808 51.2041H144.685L141.768 54.7997L144.855 58.6287Z" fill="black"/>
<path d="M133.492 51.0781C135.677 51.0781 137.363 52.7327 137.363 54.9177C137.363 57.1026 135.677 58.7572 133.492 58.7572C131.307 58.7572 129.631 57.1026 129.631 54.9177C129.631 52.7327 131.307 51.0781 133.492 51.0781ZM133.492 52.5206C132.155 52.5206 131.158 53.5282 131.158 54.9177C131.158 56.3071 132.155 57.3148 133.492 57.3148C134.828 57.3148 135.825 56.3071 135.825 54.9177C135.825 53.5282 134.828 52.5206 133.492 52.5206Z" fill="black"/>
<path d="M127.561 54.63C128.356 54.8952 128.738 55.6164 128.738 56.4861C128.738 57.8438 127.762 58.6287 126.235 58.6287H122.957V51.2041H126.213C127.582 51.2041 128.483 51.8617 128.483 53.1345C128.483 53.8769 128.165 54.3224 127.561 54.63ZM126.956 53.389C126.956 52.8481 126.648 52.6466 126.012 52.6466H124.474V54.1421H126.054C126.68 54.1421 126.956 53.8876 126.956 53.389ZM126.203 57.1862C126.977 57.1862 127.2 56.8574 127.2 56.3589C127.2 55.8179 126.977 55.5316 126.192 55.5316H124.474V57.1862H126.203Z" fill="black"/>
<path d="M117.799 51.0781C119.984 51.0781 121.671 52.7327 121.671 54.9177C121.671 57.1026 119.984 58.7572 117.799 58.7572C115.615 58.7572 113.939 57.1026 113.939 54.9177C113.939 52.7327 115.615 51.0781 117.799 51.0781ZM117.799 52.5206C116.463 52.5206 115.466 53.5282 115.466 54.9177C115.466 56.3071 116.463 57.3148 117.799 57.3148C119.136 57.3148 120.133 56.3071 120.133 54.9177C120.133 53.5282 119.136 52.5206 117.799 52.5206Z" fill="black"/>
<path d="M111.127 51.2041H112.644V58.6287H111.127V55.5528H107.829V58.6287H106.312V51.2041H107.829V54.1103H111.127V51.2041Z" fill="black"/>
<path d="M147.217 42.8589C148.84 42.8589 149.731 43.6649 149.731 45.1711C149.731 46.6666 148.777 47.4939 147.186 47.4939H144.046V40.0693H145.563V42.8589H147.217ZM150.612 40.0693H152.128V47.4939H150.612V40.0693ZM147.133 46.0514C147.843 46.0514 148.204 45.7438 148.204 45.1499C148.204 44.5559 147.875 44.2801 147.164 44.2801H145.563V46.0514H147.133Z" fill="black"/>
<path d="M141.879 46.0514H142.939V48.9682H141.423V47.4939H136.395V48.9682H134.878V46.0514H135.928C136.098 45.8817 136.204 45.5847 136.289 45.065L137.085 40.0693H141.879V46.0514ZM137.774 45.2135C137.721 45.5529 137.647 45.8287 137.572 46.0514H140.362V41.5118H138.368L137.774 45.2135Z" fill="black"/>
<path d="M130.639 40.0693H133.831V47.4939H132.315V44.9377H131.371L129.546 47.4939H127.69L129.684 44.7892C128.698 44.4816 128.104 43.6862 128.104 42.4982C128.104 41.0027 129.037 40.0693 130.639 40.0693ZM130.798 43.5589H132.315V41.5118H130.798C130.013 41.5118 129.631 41.9149 129.631 42.5407C129.631 43.1664 130.013 43.5589 130.798 43.5589Z" fill="black"/>
<path d="M124.44 40.0693C126.031 40.0693 127.081 41.0027 127.081 42.5619C127.081 44.121 126.031 45.0968 124.44 45.0968H122.838V47.4939H121.322V40.0693H124.44ZM124.376 43.6543C125.161 43.6543 125.543 43.2301 125.543 42.5831C125.543 41.9255 125.161 41.5118 124.376 41.5118H122.838V43.6543H124.376Z" fill="black"/>
<path d="M120.223 40.0693V41.5118H118.081V47.4939H116.564V41.5118H114.432V40.0693H120.223Z" fill="black"/>
<path d="M109.855 39.9414C112.04 39.9414 113.726 41.596 113.726 43.781C113.726 45.9659 112.04 47.6205 109.855 47.6205C107.67 47.6205 105.994 45.9659 105.994 43.781C105.994 41.596 107.67 39.9414 109.855 39.9414ZM109.855 41.3839C108.518 41.3839 107.521 42.3915 107.521 43.781C107.521 45.1704 108.518 46.178 109.855 46.178C111.191 46.178 112.188 45.1704 112.188 43.781C112.188 42.3915 111.191 41.3839 109.855 41.3839Z" fill="black"/>
<path d="M192.037 30.3751H188.569V31.8706H191.751V33.3131H188.569V34.9147H192.037V36.3572H187.052V28.9326H192.037V30.3751Z" fill="black"/>
<path d="M183.752 28.9326H185.491V36.3572H183.974V33.2495L184.112 31.16L180.877 36.3572H179.138V28.9326H180.654V32.0403L180.517 34.1298L183.752 28.9326Z" fill="black"/>
<path d="M178.082 36.3572H176.184L173.394 32.8888V36.3572H171.878V28.9326H173.394V32.2206L176.035 28.9326H177.913L174.996 32.5282L178.082 36.3572Z" fill="black"/>
<path d="M167.082 36.4848C164.866 36.4848 163.243 34.8302 163.243 32.6452C163.243 30.4603 164.866 28.8057 167.082 28.8057C168.854 28.8057 170.233 29.8981 170.667 31.4785H169.045C168.695 30.7148 167.984 30.2482 167.072 30.2482C165.704 30.2482 164.77 31.2558 164.77 32.6452C164.77 34.0347 165.704 35.0423 167.072 35.0423C167.984 35.0423 168.695 34.5756 169.045 33.8119H170.667C170.233 35.3923 168.854 36.4848 167.082 36.4848Z" fill="black"/>
<path d="M162.311 30.3751H158.842V31.8706H162.024V33.3131H158.842V34.9147H162.311V36.3572H157.326V28.9326H162.311V30.3751Z" fill="black"/>
<path d="M154.206 28.9326H155.723V36.3572H154.206V33.7374C153.824 33.9071 153.315 34.045 152.605 34.045C151.046 34.045 149.985 33.2707 149.985 31.4994V28.9326H151.512V31.3085C151.512 32.2843 152.032 32.6025 152.923 32.6025C153.432 32.6025 153.909 32.5176 154.206 32.3267V28.9326Z" fill="black"/>
<path d="M147.174 28.9326H148.69V36.3572H147.174V33.2813H143.875V36.3572H142.358V28.9326H143.875V31.8388H147.174V28.9326Z" fill="black"/>
<path d="M141.15 30.3751H137.681V31.8706H140.863V33.3131H137.681V34.9147H141.15V36.3572H136.165V28.9326H141.15V30.3751Z" fill="black"/>
<path d="M133.996 34.9147H135.057V37.8315H133.54V36.3572H128.513V37.8315H126.996V34.9147H128.046C128.216 34.745 128.322 34.448 128.407 33.9283L129.202 28.9326H133.996V34.9147ZM129.891 34.0768C129.838 34.4162 129.764 34.692 129.69 34.9147H132.479V30.3751H130.485L129.891 34.0768Z" fill="black"/>
<path d="M127.565 28.9326L123.715 36.3572H122.018L123.355 33.7904L120.798 28.9326H122.495L124.203 32.1464L125.868 28.9326H127.565Z" fill="black"/>
<path d="M119.912 28.9326V30.3751H117.77V36.3572H116.253V30.3751H114.121V28.9326H119.912Z" fill="black"/>
<path d="M109.877 36.4848C107.66 36.4848 106.037 34.8302 106.037 32.6452C106.037 30.4603 107.66 28.8057 109.877 28.8057C111.648 28.8057 113.027 29.8981 113.462 31.4785H111.839C111.489 30.7148 110.778 30.2482 109.866 30.2482C108.498 30.2482 107.565 31.2558 107.565 32.6452C107.565 34.0347 108.498 35.0423 109.866 35.0423C110.778 35.0423 111.489 34.5756 111.839 33.8119H113.462C113.027 35.3923 111.648 36.4848 109.877 36.4848Z" fill="black"/>
<path d="M24.583 67.5819C46.0412 86.3636 71.4512 91.4965 81.5609 79.2826C84.0191 76.3129 85.3408 72.5962 85.6251 68.4013C85.0856 71.3014 83.9409 73.8951 82.1467 76.0619C72.723 87.443 49.0372 82.6601 29.0351 65.1589C9.03309 47.6577 0.539538 24.503 9.96325 13.1219C16.1698 5.62621 28.5626 5.14188 42.0151 10.6845C26.2613 3.13843 11.3175 3.04506 4.12276 11.7373C-5.98697 23.9512 3.12488 48.8001 24.583 67.5819Z" fill="#FE4734"/>
<path d="M84.2462 37.7421V40.6417L84.0316 40.8134C78.7173 41.3516 72.6218 43.1559 69.4569 47.7526C66.0766 52.6609 67.4372 59.2439 72.6476 62.1659L73.9403 62.7393C71.4656 62.608 68.9496 61.7024 66.517 61.4689C66.3719 61.4551 65.9358 61.3384 65.9556 61.5796C67.0895 61.7384 68.2681 62.1058 69.3359 62.5153C70.4038 62.9247 71.4879 63.7711 72.5884 63.7711H77.4185V69.312H69.4965C69.4501 69.312 68.9402 68.8725 68.7454 68.7746C63.1761 65.9754 58.2867 65.9033 52.599 68.5154C52.3535 68.6279 51.3354 69.3111 51.205 69.3111H43.1541V63.7702H48.6289C48.7148 63.7702 49.8753 63.0861 50.1526 62.9745C51.9749 62.2431 53.9364 61.6097 55.9064 61.4491C55.8686 61.2208 55.2377 61.3058 55.0643 61.3161C52.1741 61.4903 49.3517 62.2912 46.5044 62.7376L48.1663 61.7607C51.4299 59.4259 53.2986 56.0404 52.0445 51.9776C51.0256 48.678 49.1088 49.0188 46.2761 48.084C40.9429 46.3234 34.1341 43.9113 32.2036 38.0657L45.3447 38.2562C45.3379 38.7773 45.7533 44.186 46.0529 44.1852L46.246 37.7412H84.2453L84.2462 37.7421Z" fill="#FE4734"/>
<path d="M74.0404 26.8265C73.5382 31.2952 69.1398 34.8318 64.7878 35.1408C64.6384 35.0086 65.8822 33.6378 66.023 33.3777C67.6351 30.3725 64.3406 26.2625 65.4728 22.9723C65.1758 22.8933 65.1294 23.0942 64.9586 23.2264C63.6633 24.2281 61.998 26.199 61.3997 27.7243C61.3139 27.9424 60.9448 29.8411 60.6778 29.6557C59.7499 28.1295 58.8099 26.6986 58.4906 24.8994C58.0168 22.222 58.5919 19.4477 58.0202 16.8013C54.2296 21.028 50.5754 26.3715 52.0595 32.3631C52.3153 33.3957 53.0046 34.3288 53.0527 35.3117C47.353 34.3202 42.9666 29.4351 44.1383 23.4865C45.1401 24.9552 46.4388 26.4574 48.1659 27.0831C43.6181 19.949 48.2036 12.6433 53.2227 7.37187C54.2862 9.39596 54.039 11.693 53.8227 13.8853C56.4863 10.8406 59.7559 6.9607 58.5344 2.57088L57.3352 0C64.6667 3.69967 65.7766 12.0003 63.2461 19.1979C63.5414 19.2752 63.5895 19.0795 63.7603 18.9438C64.6848 18.2151 66.1329 16.573 66.7003 15.542C67.472 14.142 67.7638 12.7222 67.6145 11.1436C71.9476 15.5438 73.4189 22.5645 69.242 27.5973L71.2832 26.6419L74.0395 24.1697C73.9726 25.0221 74.1339 25.993 74.0395 26.8265H74.0404Z" fill="#FE4734"/>
</svg>
